<?xml version="1.0" encoding="UTF-8"?>
<svg id="Capa_1" data-name="Capa 1" xmlns="http://www.w3.org/2000/svg" viewBox="0 0 300 300">
  <defs>
    <style>
      .cls-1 {
        fill: #fff;
      }

      .cls-2 {
        fill: #919191;
      }

      .cls-3 {
        fill: #373230;
      }
    </style>
  </defs>
  <rect class="cls-2" width="300" height="300" rx="2.35" ry="2.35"/>
  <path class="cls-3" d="M277.88,154.08c-1.14,.28-6.36,.95-6.36,.95,0,0,2.28-.85,4.65-1.99,2.37-1.14,2.28-1.61,1.99-2.75-.28-1.14-5.6,.57-5.51-.38s-.47-1.8-1.99-1.71c-1.52,.09-1.61,0-1.8-1.14s-1.8-.47-3.7,.28c-1.9,.76-5.41,1.42-10.16,4.27-4.75,2.85-5.13,1.8-8.36,2.09-3.23,.28-12.63-1.23-16.9-1.61-4.27-.38-10.83-.76-17,0-6.17,.76-16.62-1.33-19.85-1.8-3.23-.47-7.22-2.18-9.59-.76-2.37,1.42-5.7,1.33-5.7,1.33,0,0-.15,.27-.39,.72,.3-.94,.72-2.42,1.05-4.23,.57-3.13-.85-4.18,.95-5.7,1.55-1.3,5.46-4.14,5.95-5.88,.11-.13,.2-.26,.23-.39,.28-1.14-.85-1.61-2.37-3.61-1.52-1.99-.38-2.66-1.52-3.89-1.14-1.23-2.56-1.61-3.32-2.56-.54-.68-1.62-2.66-2.7-3.63,.03,.01,.05,.02,.05,.02,0,0-1.14-2.28-1.9-2.47-.27-.07-.61-.18-1.03-.22-.28-.1-.7-.15-1.23-.14,.81-2.92,2.06-7.47,2.73-11.23,.76-4.27,1.8-5.32,3.13-7.6,1.33-2.28,.38-5.7-.66-7.6-1.04-1.9-1.23-4.08-1.42-5.89-.19-1.8-2.09-2.28-2.09-2.28-1.04-1.23-2.28-.85-3.32-.85s-1.71-.76-3.42-.95c-1.71-.19-5.51,3.51-6.27,5.32-.76,1.8,6.17,8.36,7.12,8.93,.64,.39,.85,1.37,.91,1.97-.41,.49-1.35,1.62-2.34,2.96-1.33,1.8-8.55,13.39-9.21,15.76-.35,1.25-.7,2.82-1.1,4.35-3.62,.58-6.15,.18-8.59,1.92-2.66,1.9-4.65,2.85-7.98,2.56-3.32-.28-3.23,1.9-6.74,1.71-3.51-.19-6.73,1.2-6.27,1.33,1.04,.28,1.14,1.52,1.61,2.28,.47,.76,1.04,1.14,.76,1.9-.14,.38,.08,.82,.24,1.14h-.73c-.29-.34-.47-.65-.47-.19,0,.06,0,.12,.02,.19h-25.95l-.87,.12c-.58,.08-1.31,.32-2.2,.72-.81,.37-1.65,.85-2.5,1.42-.56-.57-1.21-1.05-1.97-1.42-.84-.4-1.43-.64-1.78-.72-.34-.08-.64-.12-.88-.12H44.45c-1.69,0-3.21,.56-4.57,1.69-1.36,1.13-2.22,2.53-2.57,4.22l-16.48,78.44h18.02l15.06-71.67c.35-1.67,1.2-3.06,2.55-4.17,1.35-1.11,2.85-1.67,4.52-1.67h40.18c.24,0,.53,.04,.87,.12,.34,.08,.93,.32,1.76,.71,.46,.22,.87,.49,1.25,.78,.31,.24,.6,.49,.86,.77,.58,.64,1.03,1.61,1.35,2.92,.32,1.31,.31,2.76-.02,4.35,.33-1.59,.9-3.04,1.69-4.35,.79-1.31,1.65-2.28,2.58-2.92,.93-.63,1.83-1.15,2.71-1.55,.88-.4,1.6-.63,2.18-.71l.86-.12h32.6c1.59,0,2.82,.56,3.7,1.67,.88,1.11,1.14,2.5,.79,4.17l-14.77,70.29c.99-.95,2.2-1.93,4.15-2.56,4.41-1.43,6.65-2.69,5.96-7.64-.67-4.82,7.98-12.09,17.33-16.62,7.72-3.74,4.11-5.35,10.99-8.79,6.59-3.3,11.43-5.92,12.32-8.42,.01-.03,.01-.05,.02-.08,.59-.65,.69-1.54,.72-2.44,.12-.51,.13-1.08,.09-1.67,.03-.19,.06-.38,.12-.55,.07-.23,.16-.42,.28-.59,0,0,0,.02,0,.02,0,0,1.61-.38,3.04,.09,1.42,.47,9.78,1.52,15.48,1.14,5.7-.38,5.32-.38,7.79-.47,2.47-.09,8.36,1.04,13.67,.85s15.86-2.37,18.42-2.94c2.56-.57,3.7-2.75,6.65-1.04,2.94,1.71,6.74,1.51,9.31,1.9,1.83,.27,5.58-.33,5.69-.63,2.02-.52,1.98-2.2,.86-2.6-.72-.26-4.84-.95-6.65-1.23-1.8-.28,1.04-1.99,3.7-2.75,2.66-.76,5.98-1.9,8.83-3.42,2.85-1.52,.66-3.32-.47-3.04Z"/>
  <path class="cls-3" d="M91.34,155.51c-.92-1.11-2.17-1.67-3.76-1.67h-3.1c-.83,0-1.62,.16-2.39,.46,.6,.28,1.12,.68,1.56,1.21,.92,1.11,1.21,2.46,.88,4.05l-12.48,59.4-1.25,5.94h7.69l1.25-5.94,12.48-59.4c.33-1.59,.04-2.94-.88-4.05Z"/>
  <path class="cls-3" d="M132.47,155.51c-.92-1.11-2.17-1.67-3.76-1.67h-3.1c-.83,0-1.62,.16-2.39,.46,.6,.28,1.12,.68,1.56,1.21,.92,1.11,1.21,2.46,.88,4.05l-12.48,59.4-1.25,5.94h7.69l1.25-5.94,12.48-59.4c.33-1.59,.04-2.94-.88-4.05Z"/>
  <path class="cls-2" d="M124.78,155.51c-.44-.53-.97-.93-1.56-1.21-.64-.3-1.37-.46-2.2-.46h-3.1c-.18,0-.34,.03-.52,.05-1.39,.11-2.71,.63-3.95,1.62-1.39,1.11-2.25,2.46-2.58,4.05l-13.73,65.33h7.69l1.25-5.94h7.09l12.48-59.4c.33-1.59,.04-2.94-.88-4.05Z"/>
  <path class="cls-2" d="M83.65,155.51c-.44-.53-.97-.93-1.56-1.21-.64-.3-1.37-.46-2.2-.46h-3.1c-.33,0-.65,.04-.97,.09-1.23,.18-2.4,.7-3.5,1.58-1.39,1.11-2.25,2.46-2.58,4.05l-13.73,65.33h7.69l1.25-5.94h7.09l12.48-59.4c.33-1.59,.04-2.94-.88-4.05Z"/>
  <path class="cls-1" d="M153.55,143.11c-.88-1.11-2.11-1.67-3.7-1.67h-32.6l-.86,.12c-.57,.08-1.3,.32-2.18,.71-.88,.4-1.78,.92-2.71,1.55-.93,.64-1.79,1.61-2.58,2.92-.79,1.31-1.36,2.76-1.69,4.35,.33-1.59,.34-3.04,.02-4.35-.32-1.31-.77-2.28-1.35-2.92-.26-.28-.55-.53-.86-.77-.38-.29-.8-.56-1.25-.78-.83-.4-1.42-.63-1.76-.71-.34-.08-.63-.12-.87-.12H60.98c-1.67,0-3.18,.56-4.52,1.67-1.35,1.11-2.19,2.5-2.55,4.17l-15.06,71.67-1.25,5.94h18.42l13.73-65.33c.33-1.59,1.19-2.94,2.58-4.05,1.1-.88,2.27-1.4,3.5-1.58,.32-.05,.64-.09,.97-.09h3.1c.83,0,1.56,.16,2.2,.46,.77-.3,1.57-.46,2.39-.46h3.1c1.59,0,2.84,.56,3.76,1.67,.92,1.11,1.21,2.46,.88,4.05l-12.48,59.4-1.25,5.94h18.66l13.73-65.33c.33-1.59,1.19-2.94,2.58-4.05,1.23-.99,2.55-1.51,3.95-1.62,.17-.01,.34-.05,.52-.05h3.1c.83,0,1.56,.16,2.2,.46,.77-.3,1.57-.46,2.39-.46h3.1c1.59,0,2.84,.56,3.76,1.67,.92,1.11,1.21,2.46,.88,4.05l-12.48,59.4h4.08c.14,.54,.22,.85,.22,.85,0,0,3.63,.87,6.47,.41,1.27,.15,2.83,.23,4.19-.02,1.59-.29,2.5-1.43,3.76-2.63l14.77-70.29c.35-1.67,.09-3.06-.79-4.17Z"/>
</svg>