<?xml version="1.0" encoding="utf-8"?>
<!-- Generator: Adobe Illustrator 23.1.1, SVG Export Plug-In . SVG Version: 6.00 Build 0)  -->
<svg version="1.1" id="Capa_1" xmlns="http://www.w3.org/2000/svg" xmlns:xlink="http://www.w3.org/1999/xlink" x="0px" y="0px"
	 viewBox="0 0 207 207" style="enable-background:new 0 0 207 207;" xml:space="preserve">
<style type="text/css">
	.st0{fill:#F32C03;}
	.st1{fill:#373230;}
	.st2{fill:#FFFFFF;}
</style>
<polygon class="st0" points="21.5,150.58 20.64,154.68 25.95,154.68 26.81,150.58 "/>
<path class="st0" d="M191.74,105.82c-0.79,0.2-4.39,0.66-4.39,0.66s1.57-0.59,3.21-1.38s1.57-1.11,1.38-1.9
	c-0.2-0.79-3.87,0.39-3.8-0.26c0.07-0.66-0.33-1.24-1.38-1.18c-1.05,0.07-1.11,0-1.24-0.79s-1.24-0.33-2.56,0.2
	c-1.31,0.52-3.73,0.98-7.01,2.95c-3.28,1.97-3.54,1.24-5.77,1.44c-2.23,0.2-8.71-0.85-11.66-1.11c-2.95-0.26-7.47-0.52-11.73,0
	c-4.26,0.52-11.47-0.92-13.69-1.24c-2.23-0.33-4.98-1.51-6.62-0.52s-3.93,0.92-3.93,0.92s-0.1,0.19-0.27,0.5
	c0.21-0.65,0.5-1.67,0.73-2.92c0.39-2.16-0.59-2.88,0.66-3.93c1.07-0.9,3.77-2.86,4.1-4.06c0.08-0.09,0.13-0.18,0.16-0.27
	c0.2-0.79-0.59-1.11-1.64-2.49c-1.05-1.38-0.26-1.83-1.05-2.69c-0.79-0.85-1.77-1.11-2.29-1.77c-0.37-0.47-1.12-1.83-1.87-2.51
	c0.02,0.01,0.03,0.02,0.03,0.02s-0.79-1.57-1.31-1.7c-0.19-0.05-0.42-0.12-0.71-0.15c-0.2-0.07-0.48-0.1-0.85-0.1
	c0.56-2.01,1.42-5.16,1.88-7.75c0.52-2.95,1.24-3.67,2.16-5.24c0.92-1.57,0.26-3.93-0.46-5.24c-0.72-1.31-0.85-2.82-0.98-4.06
	c-0.13-1.24-1.44-1.57-1.44-1.57c-0.72-0.85-1.57-0.59-2.29-0.59s-1.18-0.52-2.36-0.66c-1.18-0.13-3.8,2.42-4.32,3.67
	c-0.52,1.24,4.26,5.77,4.91,6.16c0.44,0.27,0.58,0.95,0.63,1.36c-0.29,0.34-0.93,1.12-1.61,2.05c-0.92,1.24-5.9,9.24-6.36,10.88
	c-0.24,0.87-0.49,1.95-0.76,3c-2.5,0.4-4.25,0.12-5.93,1.32c-1.83,1.31-3.21,1.97-5.5,1.77c-2.29-0.2-2.23,1.31-4.65,1.18
	c-2.42-0.13-4.65,0.83-4.32,0.92c0.72,0.2,0.79,1.05,1.11,1.57c0.33,0.52,0.72,0.79,0.52,1.31c-0.1,0.27,0.05,0.56,0.17,0.79h-0.5
	c-0.2-0.23-0.32-0.45-0.32-0.13c0,0.04,0.01,0.09,0.01,0.13H74.1h-4.18l-0.6,0.08c-0.4,0.06-0.91,0.22-1.52,0.5
	c-0.56,0.25-1.14,0.59-1.73,0.98c-0.39-0.39-0.83-0.72-1.36-0.98c-0.58-0.28-0.99-0.44-1.23-0.5c-0.24-0.05-0.44-0.08-0.61-0.08
	h-4.18H34.86h-4.18c-1.16,0-2.22,0.39-3.15,1.16c-0.94,0.78-1.53,1.75-1.78,2.91l-11.37,54.13h4.18h2.94h5.31l10.39-49.46
	c0.24-1.15,0.83-2.11,1.76-2.88c0.93-0.77,1.97-1.15,3.12-1.15h22.41h5.31c0.16,0,0.36,0.03,0.6,0.08c0.24,0.06,0.64,0.22,1.21,0.49
	c0.32,0.15,0.6,0.34,0.87,0.54c0.21,0.16,0.42,0.34,0.6,0.53c0.4,0.44,0.71,1.11,0.93,2.02c0.22,0.9,0.22,1.91-0.01,3
	c0.23-1.1,0.62-2.1,1.17-3c0.55-0.91,1.14-1.58,1.78-2.02c0.64-0.44,1.26-0.79,1.87-1.07c0.61-0.27,1.11-0.44,1.5-0.49l0.59-0.08
	h22.5c1.1,0,1.95,0.38,2.56,1.15c0.61,0.77,0.79,1.73,0.55,2.88l-10.19,48.5c0.68-0.65,1.52-1.33,2.86-1.76
	c3.04-0.98,4.59-1.86,4.11-5.27c-0.46-3.33,5.5-8.34,11.96-11.47c5.33-2.58,2.83-3.69,7.58-6.07c4.55-2.27,7.88-4.09,8.5-5.81
	c0.01-0.02,0.01-0.04,0.02-0.06c0.41-0.45,0.48-1.06,0.5-1.69c0.08-0.35,0.09-0.75,0.06-1.16c0.02-0.13,0.04-0.26,0.08-0.38
	c0.05-0.16,0.11-0.29,0.19-0.41c0,0,0,0.01,0,0.01s1.11-0.26,2.1,0.07c0.98,0.33,6.75,1.05,10.68,0.79
	c3.93-0.26,3.67-0.26,5.37-0.33c1.7-0.07,5.77,0.72,9.44,0.59c3.67-0.13,10.94-1.64,12.71-2.03c1.77-0.39,2.56-1.9,4.59-0.72
	c2.03,1.18,4.65,1.05,6.42,1.31c1.26,0.19,3.85-0.23,3.93-0.43c1.39-0.36,1.37-1.52,0.59-1.79c-0.5-0.18-3.34-0.66-4.59-0.85
	c-1.24-0.2,0.72-1.38,2.56-1.9c1.83-0.52,4.13-1.31,6.09-2.36C194.03,106.86,192.52,105.62,191.74,105.82z"/>
<path class="st1" d="M63.03,106.8c-0.63-0.77-1.5-1.15-2.6-1.15h-2.14c-0.57,0-1.12,0.11-1.65,0.32c0.41,0.19,0.77,0.47,1.08,0.84
	c0.63,0.77,0.84,1.7,0.6,2.8l-8.61,40.98l-0.86,4.1h5.31l0.86-4.1l8.61-40.98C63.86,108.5,63.66,107.57,63.03,106.8z"/>
<path class="st1" d="M91.41,106.8c-0.63-0.77-1.5-1.15-2.6-1.15h-2.14c-0.57,0-1.12,0.11-1.65,0.32c0.41,0.19,0.77,0.47,1.08,0.84
	c0.63,0.77,0.84,1.7,0.6,2.8l-8.61,40.98l-0.86,4.1h5.31l0.86-4.1l8.61-40.98C92.24,108.5,92.04,107.57,91.41,106.8z"/>
<path class="st0" d="M86.1,106.8c-0.31-0.37-0.67-0.64-1.08-0.84c-0.44-0.21-0.95-0.32-1.52-0.32h-2.14c-0.12,0-0.24,0.02-0.36,0.03
	c-0.96,0.08-1.87,0.44-2.72,1.12c-0.96,0.77-1.55,1.7-1.78,2.8l-9.47,45.08h5.31l0.86-4.1h2.56h2.34l8.61-40.98
	C86.93,108.5,86.73,107.57,86.1,106.8z"/>
<path class="st0" d="M57.72,106.8c-0.31-0.37-0.67-0.64-1.08-0.84c-0.44-0.21-0.95-0.32-1.52-0.32h-2.14
	c-0.23,0-0.45,0.03-0.67,0.06c-0.85,0.13-1.65,0.48-2.41,1.09c-0.96,0.77-1.55,1.7-1.78,2.8l-9.47,45.08h5.31l0.86-4.1h2.25h2.64
	l8.61-40.98C58.55,108.5,58.35,107.57,57.72,106.8z"/>
<path class="st2" d="M90.83,151.45c-1.95,0.32-4.46-0.28-4.46-0.28s-0.06-0.22-0.15-0.59H83.4l-0.86,4.1h12.71l1.06-5.05
	c-0.87,0.83-1.49,1.61-2.59,1.81C92.78,151.61,91.7,151.56,90.83,151.45z"/>
<path class="st2" d="M105.95,98.25c-0.61-0.77-1.46-1.15-2.56-1.15H80.9l-0.59,0.08c-0.4,0.06-0.9,0.22-1.5,0.49
	c-0.61,0.28-1.23,0.63-1.87,1.07c-0.64,0.44-1.23,1.11-1.78,2.02c-0.55,0.9-0.94,1.91-1.17,3c0.23-1.1,0.23-2.1,0.01-3
	c-0.22-0.91-0.53-1.58-0.93-2.02c-0.18-0.2-0.38-0.37-0.6-0.53c-0.26-0.2-0.55-0.39-0.87-0.54c-0.57-0.27-0.98-0.44-1.21-0.49
	c-0.24-0.05-0.44-0.08-0.6-0.08h-5.31H42.07c-1.15,0-2.19,0.38-3.12,1.15c-0.93,0.77-1.51,1.73-1.76,2.88l-10.39,49.46l-0.86,4.1
	h12.71l9.47-45.08c0.23-1.1,0.82-2.03,1.78-2.8c0.76-0.61,1.56-0.97,2.41-1.09c0.22-0.03,0.44-0.06,0.67-0.06h2.14
	c0.57,0,1.07,0.11,1.52,0.32c0.53-0.21,1.08-0.32,1.65-0.32h2.14c1.1,0,1.96,0.38,2.6,1.15c0.63,0.77,0.84,1.7,0.6,2.8l-8.61,40.98
	l-0.86,4.1h12.87l9.47-45.08c0.23-1.1,0.82-2.03,1.78-2.8c0.85-0.68,1.76-1.04,2.72-1.12c0.12-0.01,0.24-0.03,0.36-0.03h2.14
	c0.57,0,1.07,0.11,1.52,0.32c0.53-0.21,1.08-0.32,1.65-0.32h2.14c1.1,0,1.96,0.38,2.6,1.15c0.63,0.77,0.84,1.7,0.6,2.8l-8.61,40.98
	h2.81c0.1,0.37,0.15,0.59,0.15,0.59s2.51,0.6,4.46,0.28c0.87,0.1,1.95,0.16,2.89-0.01c1.1-0.2,1.72-0.99,2.59-1.81l10.19-48.5
	C106.74,99.97,106.56,99.02,105.95,98.25z"/>
</svg>
